<?xml version="1.0" standalone="no"?>
<!DOCTYPE svg PUBLIC "-//W3C//DTD SVG 20010904//EN"
 "http://www.w3.org/TR/2001/REC-SVG-20010904/DTD/svg10.dtd">
<svg version="1.0" xmlns="http://www.w3.org/2000/svg"
 width="512.000000pt" height="512.000000pt" viewBox="0 0 512.000000 512.000000"
 preserveAspectRatio="xMidYMid meet">

<g transform="translate(0.000000,512.000000) scale(0.100000,-0.100000)"
fill="#000000" stroke="none">
<path d="M2118 4790 c-250 -126 -421 -217 -428 -229 -7 -13 -10 -324 -10 -958
l0 -938 -95 -48 c-66 -32 -97 -43 -100 -35 -2 7 -15 51 -30 97 -49 157 -116
266 -186 301 -125 64 -241 -42 -324 -295 -36 -110 -67 -281 -63 -349 l3 -58
-429 -207 c-236 -114 -435 -216 -442 -226 -11 -15 -14 -70 -14 -246 0 -202 2
-229 17 -247 21 -24 2515 -1232 2544 -1232 29 0 2521 1208 2541 1232 16 18 18
46 18 248 0 202 -2 230 -17 248 -10 12 -209 113 -443 226 l-425 205 3 58 c4
68 -27 235 -64 348 -66 204 -156 315 -254 315 -44 0 -103 -33 -139 -78 -40
-51 -96 -170 -122 -257 -11 -38 -22 -76 -24 -83 -3 -8 -34 2 -100 35 l-95 48
0 938 c0 634 -3 945 -10 958 -13 24 -840 439 -872 438 -13 0 -211 -94 -440
-209z m747 -112 c168 -84 305 -155 305 -158 0 -3 -137 -74 -305 -158 l-305
-152 -305 152 c-168 84 -305 155 -305 158 0 4 594 306 607 309 2 1 140 -68
308 -151z m-385 -1878 l0 -1270 -320 160 -320 160 0 1270 0 1270 320 -160 320
-160 0 -1270z m800 320 l0 -1270 -320 -160 -320 -160 0 1270 0 1270 318 159
c174 88 318 160 320 160 1 1 2 -570 2 -1269z m-2051 -316 c43 -55 115 -280
127 -402 8 -72 -6 -119 -46 -157 l-30 -29 0 88 c0 79 -2 89 -25 111 -15 16
-36 25 -55 25 -19 0 -40 -9 -55 -25 -23 -22 -25 -32 -25 -111 l0 -87 -24 22
c-44 41 -59 87 -53 157 15 161 114 434 157 434 5 0 18 -12 29 -26z m2720 0
c45 -57 116 -286 128 -408 6 -70 -9 -116 -53 -157 l-24 -22 0 87 c0 79 -2 89
-25 111 -15 16 -36 25 -55 25 -19 0 -40 -9 -55 -25 -23 -22 -25 -32 -25 -111
l0 -88 -30 29 c-40 38 -54 85 -46 157 16 161 114 428 156 428 5 0 18 -12 29
-26z m-2269 -675 c0 -225 4 -357 10 -370 12 -22 838 -439 870 -439 32 0 858
417 870 439 6 13 10 145 10 370 0 193 2 351 5 351 2 0 38 -16 79 -37 l73 -36
6 -68 c10 -119 68 -207 172 -260 l65 -34 0 -138 c0 -133 1 -139 25 -162 15
-16 36 -25 55 -25 19 0 40 9 55 25 24 23 25 29 25 163 l0 139 42 19 c22 10 58
31 78 45 l37 27 346 -166 c191 -92 346 -169 346 -172 0 -3 -514 -254 -1144
-558 l-1144 -553 -1048 507 c-576 279 -1093 529 -1148 555 l-100 48 260 126
c143 70 301 146 351 170 l90 42 28 -22 c16 -13 50 -33 77 -46 l49 -22 0 -139
c0 -134 1 -140 25 -163 32 -33 78 -33 110 0 24 23 25 29 25 162 l0 138 65 34
c104 53 162 141 172 260 l6 68 71 36 c39 20 74 36 79 36 4 1 7 -157 7 -350z
m-355 -1019 c627 -304 1144 -555 1148 -559 4 -4 6 -56 5 -114 l-3 -107 -1050
508 c-577 280 -1098 531 -1157 560 l-108 51 0 111 c0 86 3 111 13 107 6 -3
525 -254 1152 -557z m3628 339 c-7 -6 -2257 -1098 -2301 -1116 -10 -4 -12 18
-10 106 l3 112 1155 559 1155 559 3 -106 c1 -59 -1 -110 -5 -114z"/>
<path d="M1945 4055 c-26 -25 -32 -63 -15 -96 13 -24 360 -199 395 -199 54 0
92 70 65 121 -13 24 -360 199 -395 199 -14 0 -37 -11 -50 -25z"/>
<path d="M1945 3735 c-26 -25 -32 -63 -15 -96 13 -24 360 -199 395 -199 54 0
92 70 65 121 -13 24 -360 199 -395 199 -14 0 -37 -11 -50 -25z"/>
<path d="M1945 3415 c-26 -25 -32 -63 -15 -96 13 -24 360 -199 395 -199 54 0
92 70 65 121 -13 24 -360 199 -395 199 -14 0 -37 -11 -50 -25z"/>
<path d="M1945 3095 c-26 -25 -32 -63 -15 -96 13 -24 360 -199 395 -199 54 0
92 70 65 121 -13 24 -360 199 -395 199 -14 0 -37 -11 -50 -25z"/>
<path d="M1945 2775 c-26 -25 -32 -63 -15 -96 13 -24 360 -199 395 -199 54 0
92 70 65 121 -13 24 -360 199 -395 199 -14 0 -37 -11 -50 -25z"/>
<path d="M1945 2455 c-26 -25 -32 -63 -15 -96 13 -24 360 -199 395 -199 54 0
92 70 65 121 -13 24 -360 199 -395 199 -14 0 -37 -11 -50 -25z"/>
<path d="M1945 2135 c-26 -25 -32 -63 -15 -96 13 -24 360 -199 395 -199 54 0
92 70 65 121 -13 24 -360 199 -395 199 -14 0 -37 -11 -50 -25z"/>
<path d="M2918 3990 c-97 -49 -182 -98 -188 -109 -27 -51 11 -121 65 -121 35
0 382 175 395 199 27 52 -11 122 -67 120 -15 0 -108 -40 -205 -89z"/>
<path d="M2918 3670 c-97 -49 -182 -98 -188 -109 -27 -51 11 -121 65 -121 35
0 382 175 395 199 27 52 -11 122 -67 120 -15 0 -108 -40 -205 -89z"/>
<path d="M2918 3350 c-97 -49 -182 -98 -188 -109 -27 -51 11 -121 65 -121 35
0 382 175 395 199 27 52 -11 122 -67 120 -15 0 -108 -40 -205 -89z"/>
<path d="M2918 3030 c-97 -49 -182 -98 -188 -109 -27 -51 11 -121 65 -121 35
0 382 175 395 199 27 52 -11 122 -67 120 -15 0 -108 -40 -205 -89z"/>
<path d="M2918 2710 c-97 -49 -182 -98 -188 -109 -27 -51 11 -121 65 -121 35
0 382 175 395 199 27 52 -11 122 -67 120 -15 0 -108 -40 -205 -89z"/>
<path d="M2918 2390 c-97 -49 -182 -98 -188 -109 -27 -51 11 -121 65 -121 35
0 382 175 395 199 27 52 -11 122 -67 120 -15 0 -108 -40 -205 -89z"/>
<path d="M2918 2070 c-97 -49 -182 -98 -188 -109 -27 -51 11 -121 65 -121 35
0 382 175 395 199 27 52 -11 122 -67 120 -15 0 -108 -40 -205 -89z"/>
<path d="M508 1420 c-25 -26 -29 -36 -24 -63 8 -41 39 -67 80 -67 80 0 106
109 35 145 -41 22 -57 19 -91 -15z"/>
<path d="M905 1225 c-59 -58 5 -151 85 -124 35 13 50 35 50 77 0 65 -87 96
-135 47z"/>
<path d="M1319 1050 c-9 -5 -22 -23 -29 -40 -33 -79 65 -146 125 -85 65 64
-17 171 -96 125z"/>
<path d="M1733 860 c-82 -33 -57 -150 32 -150 79 0 104 109 34 145 -32 17 -35
17 -66 5z"/>
<path d="M2113 655 c-72 -51 -3 -168 79 -134 34 14 48 37 48 77 0 58 -76 93
-127 57z"/>
<path d="M4508 1420 c-25 -26 -29 -36 -24 -63 8 -41 39 -67 80 -67 80 0 106
109 35 145 -41 22 -57 19 -91 -15z"/>
<path d="M4105 1225 c-59 -58 5 -151 85 -124 35 13 50 35 50 77 0 65 -87 96
-135 47z"/>
<path d="M3719 1050 c-9 -5 -22 -23 -29 -40 -33 -79 65 -146 125 -85 65 64
-17 171 -96 125z"/>
<path d="M3333 860 c-82 -33 -57 -150 32 -150 79 0 104 109 34 145 -32 17 -35
17 -66 5z"/>
<path d="M2913 655 c-72 -51 -3 -168 79 -134 34 14 48 37 48 77 0 58 -76 93
-127 57z"/>
</g>
</svg>
